<?xml version="1.0" standalone="no"?>
<!DOCTYPE svg PUBLIC "-//W3C//DTD SVG 20010904//EN"
 "http://www.w3.org/TR/2001/REC-SVG-20010904/DTD/svg10.dtd">
<svg version="1.0" xmlns="http://www.w3.org/2000/svg"
 width="303.000000pt" height="91.000000pt" viewBox="0 0 303.000000 91.000000"
 preserveAspectRatio="xMidYMid meet">
<metadata>
Created by potrace 1.15, written by Peter Selinger 2001-2017
</metadata>
<g transform="translate(0.000000,91.000000) scale(0.100000,-0.100000)"
fill="#000000" stroke="none">
<path d="M150 828 c-83 -42 -114 -150 -67 -238 26 -50 67 -75 159 -96 40 -10
73 -25 91 -42 25 -23 28 -32 23 -67 -3 -28 -14 -48 -37 -69 -29 -25 -37 -28
-85 -24 -64 5 -97 31 -126 96 -32 70 -48 56 -48 -43 0 -91 7 -101 45 -65 l22
20 44 -20 c55 -25 92 -25 146 -1 123 56 140 271 25 330 -22 11 -69 28 -106 37
-83 21 -116 45 -116 85 0 45 48 89 95 89 53 0 91 -27 122 -87 40 -76 53 -70
53 27 0 85 -7 94 -45 66 -16 -11 -24 -11 -59 5 -54 24 -83 24 -136 -3z"/>
<path d="M1165 605 c-43 -15 -75 -47 -75 -75 0 -22 31 -50 57 -50 41 0 69 60
41 88 -18 18 8 33 52 30 l35 -3 3 -67 3 -66 -53 -7 c-104 -14 -158 -51 -158
-109 0 -38 10 -55 41 -71 40 -21 79 -19 132 9 45 22 47 22 63 5 25 -27 76 -34
113 -15 36 19 41 43 9 42 -22 -1 -23 2 -28 125 -3 85 -9 131 -19 142 -29 36
-144 48 -216 22z"/>
<path d="M1965 606 c-41 -16 -75 -48 -75 -72 0 -20 37 -54 58 -54 38 0 70 68
42 85 -20 12 11 35 46 35 40 0 54 -24 54 -96 0 -39 -2 -44 -23 -44 -12 0 -50
-7 -82 -15 -107 -27 -148 -105 -84 -159 39 -33 81 -33 144 -2 l48 25 29 -25
c34 -28 57 -30 98 -9 35 18 39 42 8 41 -22 -1 -23 2 -28 128 -5 125 -6 129
-32 149 -35 26 -147 33 -203 13z"/>
<path d="M2348 613 c-51 -3 -68 -8 -68 -18 0 -9 10 -15 25 -15 l25 0 0 -140 0
-140 -25 0 c-16 0 -25 -6 -25 -15 0 -12 18 -15 105 -15 87 0 105 3 105 15 0 9
-9 15 -25 15 -25 0 -25 1 -25 88 0 48 5 103 10 123 17 60 87 91 110 50 5 -11
10 -74 10 -140 l0 -121 -25 0 c-16 0 -25 -6 -25 -15 0 -12 18 -15 105 -15 87
0 105 3 105 15 0 9 -9 15 -25 15 -25 0 -25 0 -25 96 0 106 15 152 54 174 13 6
32 10 42 8 17 -3 19 -15 22 -141 l3 -137 -26 0 c-16 0 -25 -6 -25 -15 0 -12
19 -15 110 -15 91 0 110 3 110 15 0 9 -9 15 -25 15 l-25 0 0 129 c0 120 -2
132 -22 156 -25 28 -80 42 -122 31 -14 -3 -41 -20 -59 -36 l-34 -29 -21 29
c-39 53 -126 52 -188 -2 l-34 -30 0 36 c0 23 -4 35 -12 34 -7 -1 -43 -3 -80
-5z"/>
<path d="M460 595 c0 -9 9 -15 23 -15 21 0 31 -18 88 -160 45 -112 69 -160 80
-160 11 0 30 33 59 100 23 55 45 100 49 100 4 0 29 -45 56 -100 32 -65 55
-100 64 -98 8 2 37 68 70 158 48 133 59 155 79 158 12 2 22 10 22 18 0 11 -15
14 -65 14 -51 0 -65 -3 -65 -15 0 -9 9 -15 25 -15 32 0 32 -16 -2 -109 l-27
-73 -53 106 c-30 59 -59 106 -65 104 -6 -2 -30 -48 -53 -101 -22 -53 -43 -98
-46 -101 -2 -2 -21 36 -41 85 l-36 89 34 0 c24 0 34 5 34 15 0 12 -19 15 -115
15 -96 0 -115 -3 -115 -15z"/>
<path d="M1460 595 c0 -8 8 -15 18 -15 12 0 39 -43 95 -155 l77 -156 -30 -72
c-39 -91 -44 -96 -73 -69 -13 12 -30 22 -39 22 -19 0 -48 -32 -48 -53 0 -20
38 -47 67 -47 46 0 72 41 177 280 75 174 108 238 124 245 44 20 25 35 -43 35
-51 0 -65 -3 -65 -15 0 -9 9 -15 25 -15 18 0 25 -5 25 -19 0 -21 -56 -151 -64
-151 -6 0 -86 155 -86 165 0 3 11 5 25 5 16 0 25 6 25 15 0 12 -18 15 -105 15
-87 0 -105 -3 -105 -15z"/>
</g>
</svg>
